HIERARCHY
ROOT Hips
{
	OFFSET 0.000000 91.145912 0.000000
	CHANNELS 6 Xposition Yposition Zposition Xrotation Yrotation Zrotation
	JOINT RightUpLeg
	{
		OFFSET -7.978616 0.020706 -0.002301
		CHANNELS 6 Xposition Yposition Zposition Xrotation Yrotation Zrotation
		JOINT RightLeg
		{
			OFFSET 0.000000 -41.199947 -0.001895
			CHANNELS 6 Xposition Yposition Zposition Xrotation Yrotation Zrotation
			JOINT RightFoot
			{
				OFFSET 0.000000 -40.188824 -0.003193
				CHANNELS 6 Xposition Yposition Zposition Xrotation Yrotation Zrotation
				JOINT RightToeBase
				{
					OFFSET 0.000000 -7.939033 18.143217
					CHANNELS 6 Xposition Yposition Zposition Xrotation Yrotation Zrotation
					End Site
					{
						OFFSET 0.000000 19.804155 0.000000
					}
				}
			}
		}
	}
	JOINT LeftUpLeg
	{
		OFFSET 7.978616 0.018532 -0.002059
		CHANNELS 6 Xposition Yposition Zposition Xrotation Yrotation Zrotation
		JOINT LeftLeg
		{
			OFFSET 0.000000 -41.199947 -0.001895
			CHANNELS 6 Xposition Yposition Zposition Xrotation Yrotation Zrotation
			JOINT LeftFoot
			{
				OFFSET 0.000000 -40.188824 -0.003193
				CHANNELS 6 Xposition Yposition Zposition Xrotation Yrotation Zrotation
				JOINT LeftToeBase
				{
					OFFSET 0.000000 -7.939033 18.143217
					CHANNELS 6 Xposition Yposition Zposition Xrotation Yrotation Zrotation
					End Site
					{
						OFFSET 0.000000 19.804155 0.000000
					}
				}
			}
		}
	}
	JOINT Spine
	{
		OFFSET 0.000000 9.664871 -1.073875
		CHANNELS 6 Xposition Yposition Zposition Xrotation Yrotation Zrotation
		JOINT Spine1
		{
			OFFSET 0.000000 10.672615 0.000000
			CHANNELS 3 Xrotation Yrotation Zrotation
			JOINT Spine2
			{
				OFFSET 0.000000 9.745026 -0.008016
				CHANNELS 6 Xposition Yposition Zposition Xrotation Yrotation Zrotation
				JOINT Spine3
				{
					OFFSET 0.000000 9.734146 -0.008024
					CHANNELS 6 Xposition Yposition Zposition Xrotation Yrotation Zrotation
					JOINT LeftShoulder
					{
						OFFSET 2.982571 7.645615 0.000000
						CHANNELS 6 Xposition Yposition Zposition Xrotation Yrotation Zrotation
						JOINT LeftArm
						{
							OFFSET 14.068447 0.000000 0.000000
							CHANNELS 6 Xposition Yposition Zposition Xrotation Yrotation Zrotation
							JOINT LeftForeArm
							{
								OFFSET 30.140327 0.000000 0.000000
								CHANNELS 6 Xposition Yposition Zposition Xrotation Yrotation Zrotation
								JOINT LeftHand
								{
									OFFSET 24.636414 0.000000 0.000000
									CHANNELS 6 Xposition Yposition Zposition Xrotation Yrotation Zrotation
									End Site
									{
										OFFSET 0.000000 24.636414 0.000000
									}
								}
							}
						}
					}
					JOINT RightShoulder
					{
						OFFSET -2.982571 7.645615 0.000000
						CHANNELS 6 Xposition Yposition Zposition Xrotation Yrotation Zrotation
						JOINT RightArm
						{
							OFFSET -14.068447 0.000000 0.000000
							CHANNELS 6 Xposition Yposition Zposition Xrotation Yrotation Zrotation
							JOINT RightForeArm
							{
								OFFSET -30.140327 0.000000 0.000000
								CHANNELS 6 Xposition Yposition Zposition Xrotation Yrotation Zrotation
								JOINT RightHand
								{
									OFFSET -24.636414 0.000000 0.000000
									CHANNELS 6 Xposition Yposition Zposition Xrotation Yrotation Zrotation
									JOINT Prop1
									{
										OFFSET -9.043953 -1.004883 2.009767
										CHANNELS 6 Xposition Yposition Zposition Xrotation Yrotation Zrotation
										End Site
										{
											OFFSET 0.000000 9.318909 0.000000
										}
									}
								}
							}
						}
					}
					JOINT Neck
					{
						OFFSET 0.000000 13.630920 0.000000
						CHANNELS 6 Xposition Yposition Zposition Xrotation Yrotation Zrotation
						JOINT Head
						{
							OFFSET 0.000000 9.064621 0.017240
							CHANNELS 6 Xposition Yposition Zposition Xrotation Yrotation Zrotation
							End Site
							{
								OFFSET 2.350056 8.402847 -2.457058
							}
						}
					}
				}
			}
		}
	}
}
MOTION
Frames: 5
Frame Time: 0.008333
219.812210 90.195740 -27.871880 55.720512 -50.194975 -254.704803 -7.978611 0.020710 -0.002278 -71.210596 13.526374 -26.458232 0.000009 -41.199963 -0.001906 33.462289 -1.909768 -3.939452 0.000004 -40.188828 -0.003191 -14.590462 -11.224673 -16.250268 0.000011 -7.939033 18.143229 0.000000 -0.000002 0.000000 7.978618 0.018535 -0.002047 -9.675688 7.698097 11.094748 0.000004 -41.199940 -0.001866 51.633928 2.287752 -5.617304 0.000006 -40.188786 -0.003190 18.269860 -18.392856 -34.920927 0.000022 -7.939035 18.143202 -0.000000 0.000001 0.000002 0.000001 9.664860 -1.073855 8.419788 -9.292530 6.447060 -2.238704 -4.495589 2.241186 -0.000004 9.745007 -0.008010 3.581679 -4.495339 2.240965 0.000004 9.734145 -0.008030 8.511801 -3.198973 1.989171 2.982574 7.645607 -0.000012 -7.012899 -1.882768 -4.936850 14.068450 0.000017 0.000001 -53.134186 -20.728004 -64.590176 30.140335 -0.000016 -0.000002 20.798513 -102.686218 -23.935264 24.636417 -0.000005 0.000011 33.672614 3.212468 -31.188751 -2.982559 7.645598 -0.000015 -15.023117 1.091305 -4.453596 -14.068449 -0.000012 0.000000 -9.539451 -0.753941 47.852678 -30.140331 0.000000 -0.000002 -7.067818 83.301998 22.767623 -24.636429 0.000011 0.000008 7.605072 -27.588147 17.029437 -9.043946 -1.004886 2.009769 6.296249 -7.278347 11.229413 0.000011 13.630928 -0.000010 16.476496 6.793410 -15.878069 0.000013 9.064639 0.017233 0.679198 -10.946835 -8.312993 
220.836243 89.248970 -26.761154 57.052314 -48.218694 -257.214897 -7.978611 0.020722 -0.002295 -73.188393 15.317159 -22.372848 0.000003 -41.199924 -0.001879 35.784106 -1.418921 -4.608225 0.000004 -40.188824 -0.003199 -14.551528 -11.687732 -15.973366 -0.000004 -7.939034 18.143244 0.000000 -0.000000 -0.000001 7.978617 0.018528 -0.002064 -8.956247 6.077100 5.226448 -0.000002 -41.199936 -0.001880 52.591774 2.897344 -7.329526 -0.000001 -40.188862 -0.003194 13.897920 -19.667354 -36.008706 -0.000006 -7.939053 18.143219 -0.000000 0.000002 -0.000001 -0.000001 9.664873 -1.073882 8.611050 -9.702723 8.401213 -2.199990 -4.799595 3.068618 0.000004 9.745011 -0.008013 3.620826 -4.798215 3.069047 0.000000 9.734158 -0.008031 8.532621 -3.366443 2.628276 2.982563 7.645594 -0.000004 -6.755689 -1.495102 -4.269773 14.068452 0.000029 -0.000015 -55.319444 -20.592196 -67.522321 30.140329 0.000003 -0.000002 32.908285 -103.015372 -13.673548 24.636417 0.000003 -0.000009 33.207960 3.272903 -32.402954 -2.982586 7.645601 -0.000006 -14.491358 2.368275 -3.411704 -14.068445 -0.000013 0.000009 -13.053508 2.934526 47.338166 -30.140326 0.000004 -0.000006 2.954667 81.349875 13.083256 -24.636395 0.000000 -0.000001 7.249213 -27.947106 17.298451 -9.043957 -1.004871 2.009775 6.167541 -7.324074 11.193551 -0.000005 13.630911 -0.000012 16.903419 7.718132 -15.997708 0.000003 9.064642 0.017217 1.592919 -9.325588 -8.459403 
221.976059 88.133896 -25.819765 57.750001 -46.648566 -260.686901 -7.978615 0.020730 -0.002302 -74.799717 17.477424 -18.203880 0.000001 -41.199932 -0.001904 38.298711 -1.088560 -5.133963 0.000002 -40.188828 -0.003193 -14.330577 -11.955573 -15.881262 -0.000007 -7.939036 18.143206 -0.000001 0.000002 0.000000 7.978612 0.018558 -0.002059 -9.014880 4.381148 -0.011580 -0.000003 -41.199940 -0.001883 53.028889 3.930002 -8.674587 0.000005 -40.188831 -0.003187 9.654203 -19.686724 -35.799395 -0.000008 -7.939033 18.143219 0.000001 -0.000001 -0.000002 -0.000002 9.664897 -1.073873 8.980710 -10.235960 10.329627 -2.087872 -5.163624 3.868830 -0.000006 9.745036 -0.007992 3.733115 -5.162887 3.868875 -0.000004 9.734153 -0.008035 8.606680 -3.584017 3.249451 2.982583 7.645612 -0.000016 -6.833593 -0.885546 -3.745744 14.068466 -0.000000 -0.000004 -57.602387 -19.400433 -70.257887 30.140326 -0.000013 -0.000013 47.076147 -103.784520 -0.997143 24.636419 0.000006 0.000005 33.346732 3.844849 -33.103290 -2.982575 7.645617 -0.000025 -13.666820 3.702544 -2.475685 -14.068439 0.000007 -0.000023 -16.426468 6.225168 47.307533 -30.140329 0.000013 -0.000002 8.085754 79.483335 8.212928 -24.636402 0.000001 -0.000014 6.911478 -28.263162 17.579464 -9.043946 -1.004900 2.009758 6.071019 -7.269479 11.187875 -0.000002 13.630911 -0.000021 17.392156 8.624134 -16.200276 0.000001 9.064616 0.017247 2.571856 -7.745746 -8.790571 
223.228790 86.928505 -25.212145 56.988291 -45.438161 -265.441778 -7.978613 0.020712 -0.002308 -76.365736 18.729128 -14.632535 -0.000004 -41.199951 -0.001901 40.947148 -0.242935 -6.180345 0.000003 -40.188824 -0.003204 -14.166844 -12.172110 -15.695932 0.000007 -7.939031 18.143194 -0.000000 -0.000001 -0.000000 7.978624 0.018542 -0.002076 -9.563684 3.171112 -3.467019 -0.000000 -41.199944 -0.001915 54.411292 5.062085 -10.389461 -0.000006 -40.188774 -0.003189 6.415688 -18.165375 -34.358184 -0.000034 -7.939028 18.143219 0.000001 0.000001 -0.000000 0.000003 9.664882 -1.073893 9.426809 -10.561109 12.096496 -1.936267 -5.432045 4.608340 -0.000005 9.745026 -0.008022 3.883869 -5.432709 4.607665 -0.000011 9.734171 -0.007993 8.708314 -3.736008 3.817809 2.982558 7.645610 -0.000007 -7.361513 -0.853222 -3.034637 14.068447 0.000001 -0.000003 -59.413029 -18.235673 -73.811225 30.140331 -0.000019 0.000013 54.280753 -104.628847 5.689241 24.636408 0.000003 -0.000001 34.717312 4.862464 -33.740909 -2.982578 7.645620 -0.000015 -13.123582 4.332720 -1.522356 -14.068450 0.000013 -0.000007 -19.051918 8.343300 47.443102 -30.140362 0.000002 -0.000014 12.215169 78.123485 4.156945 -24.636402 0.000003 0.000000 6.635249 -28.390518 17.710925 -9.043947 -1.004899 2.009743 6.027855 -7.154110 11.198477 -0.000013 13.630943 -0.000013 17.728733 9.208749 -16.100597 0.000008 9.064626 0.017251 3.391183 -6.776478 -8.598127 
224.642242 85.619957 -24.956936 54.618168 -44.476136 -271.667578 -7.978624 0.020698 -0.002311 -77.681230 18.778601 -11.687025 0.000004 -41.199955 -0.001910 43.913369 1.380906 -8.001028 0.000003 -40.188824 -0.003191 -14.105618 -12.405127 -15.441562 0.000001 -7.939036 18.143225 -0.000000 -0.000000 0.000000 7.978609 0.018524 -0.002076 -10.694401 2.490876 -4.950592 0.000009 -41.199940 -0.001901 57.205327 6.695107 -12.834387 -0.000005 -40.188805 -0.003195 3.610722 -14.396230 -31.948507 0.000014 -7.939040 18.143206 -0.000000 -0.000000 -0.000000 -0.000012 9.664871 -1.073879 9.857624 -10.639815 13.750430 -1.782354 -5.585077 5.315990 -0.000003 9.745024 -0.007998 4.036973 -5.585790 5.314960 -0.000008 9.734146 -0.008041 8.811778 -3.802670 4.354469 2.982571 7.645610 0.000011 -8.514390 -1.665238 -2.021996 14.068452 -0.000017 0.000000 -60.351838 -16.954382 -78.422203 30.140324 0.000004 -0.000008 54.232122 -104.996400 6.263939 24.636410 0.000039 0.000004 38.137041 6.271578 -34.473874 -2.982563 7.645637 0.000023 -13.010236 4.021576 -0.398375 -14.068430 0.000014 -0.000028 -20.826442 9.250134 47.455820 -30.140312 -0.000003 -0.000003 16.241876 77.299689 0.009935 -24.636406 -0.000002 0.000006 6.477027 -28.312720 17.628158 -9.043962 -1.004882 2.009778 6.055032 -6.970112 11.222683 -0.000002 13.630914 0.000013 17.913284 9.404037 -15.596720 0.000001 9.064629 0.017262 4.085142 -6.534076 -7.692992 
